<mxfile host="app.diagrams.net" modified="2021-03-09T15:40:12.328Z" agent="5.0 (Windows NT 10.0; Win64; x64) AppleWebKit/537.36 (KHTML, like Gecko) Chrome/88.0.4324.190 Safari/537.36" etag="dYn4TcYdzAjjwdresvCg" version="14.4.4" type="github">
  <diagram id="vl_AGbrKZmYdF3dpeHAi" name="Page-1">
    <mxGraphModel dx="1422" dy="762" grid="1" gridSize="10" guides="1" tooltips="1" connect="1" arrows="1" fold="1" page="1" pageScale="1" pageWidth="1169" pageHeight="827" math="0" shadow="0">
      <root>
        <mxCell id="0" />
        <mxCell id="1" parent="0" />
        <mxCell id="OdWC_pLGIVVMLjIX-C78-2" value="" style="rounded=1;whiteSpace=wrap;html=1;" vertex="1" parent="1">
          <mxGeometry x="110" y="207.5" width="740" height="410" as="geometry" />
        </mxCell>
        <mxCell id="OdWC_pLGIVVMLjIX-C78-1" value="End users devices" style="aspect=fixed;html=1;points=[];align=center;image;fontSize=12;image=img/lib/mscae/Devices_Groups.svg;" vertex="1" parent="1">
          <mxGeometry x="80" y="40" width="80" height="80" as="geometry" />
        </mxCell>
        <mxCell id="OdWC_pLGIVVMLjIX-C78-3" value="Pax VM" style="text;html=1;strokeColor=none;fillColor=none;align=center;verticalAlign=middle;whiteSpace=wrap;rounded=0;" vertex="1" parent="1">
          <mxGeometry x="140" y="207.5" width="80" height="20" as="geometry" />
        </mxCell>
        <mxCell id="OdWC_pLGIVVMLjIX-C78-6" value="" style="group" vertex="1" connectable="0" parent="1">
          <mxGeometry x="150" y="267.5" width="390" height="291" as="geometry" />
        </mxCell>
        <mxCell id="OdWC_pLGIVVMLjIX-C78-4" value="" style="rounded=1;whiteSpace=wrap;html=1;fillColor=#dae8fc;strokeColor=#6c8ebf;" vertex="1" parent="OdWC_pLGIVVMLjIX-C78-6">
          <mxGeometry y="1.2074688796680497" width="190" height="289.79253112033194" as="geometry" />
        </mxCell>
        <mxCell id="OdWC_pLGIVVMLjIX-C78-5" value="validation app" style="text;html=1;strokeColor=none;fillColor=none;align=center;verticalAlign=middle;whiteSpace=wrap;rounded=0;fontStyle=1;fontColor=#000099;" vertex="1" parent="OdWC_pLGIVVMLjIX-C78-6">
          <mxGeometry x="35" width="122.14285714285715" height="24.149377593360995" as="geometry" />
        </mxCell>
        <mxCell id="OdWC_pLGIVVMLjIX-C78-9" style="edgeStyle=orthogonalEdgeStyle;rounded=0;orthogonalLoop=1;jettySize=auto;html=1;fontColor=#000099;" edge="1" parent="OdWC_pLGIVVMLjIX-C78-6" source="OdWC_pLGIVVMLjIX-C78-7" target="OdWC_pLGIVVMLjIX-C78-8">
          <mxGeometry relative="1" as="geometry" />
        </mxCell>
        <mxCell id="OdWC_pLGIVVMLjIX-C78-7" value="nginx&lt;br&gt;(service link)" style="rounded=1;whiteSpace=wrap;html=1;fontColor=#000099;" vertex="1" parent="OdWC_pLGIVVMLjIX-C78-6">
          <mxGeometry x="35" y="52" width="120" height="60" as="geometry" />
        </mxCell>
        <mxCell id="OdWC_pLGIVVMLjIX-C78-8" value="nodejs" style="rounded=1;whiteSpace=wrap;html=1;fontColor=#000099;" vertex="1" parent="OdWC_pLGIVVMLjIX-C78-6">
          <mxGeometry x="35" y="172" width="120" height="60" as="geometry" />
        </mxCell>
        <mxCell id="OdWC_pLGIVVMLjIX-C78-15" value="" style="group" vertex="1" connectable="0" parent="OdWC_pLGIVVMLjIX-C78-6">
          <mxGeometry x="26.07000000000005" y="44" width="140" height="220" as="geometry" />
        </mxCell>
        <mxCell id="OdWC_pLGIVVMLjIX-C78-13" value="" style="rounded=1;whiteSpace=wrap;html=1;dashed=1;strokeWidth=2;fillColor=none;fontColor=#CC0000;strokeColor=#009900;" vertex="1" parent="OdWC_pLGIVVMLjIX-C78-15">
          <mxGeometry width="140" height="220.00000000000003" as="geometry" />
        </mxCell>
        <mxCell id="OdWC_pLGIVVMLjIX-C78-14" value="Internal network" style="text;html=1;strokeColor=none;fillColor=none;align=center;verticalAlign=middle;whiteSpace=wrap;rounded=0;dashed=1;fontStyle=1;fontColor=#009900;" vertex="1" parent="OdWC_pLGIVVMLjIX-C78-15">
          <mxGeometry x="5.833333333333332" y="195.33333333333334" width="128.33333333333331" height="24.444444444444446" as="geometry" />
        </mxCell>
        <mxCell id="OdWC_pLGIVVMLjIX-C78-12" value="" style="group" vertex="1" connectable="0" parent="1">
          <mxGeometry x="170" y="297.5" width="600" height="110" as="geometry" />
        </mxCell>
        <mxCell id="OdWC_pLGIVVMLjIX-C78-10" value="" style="rounded=1;whiteSpace=wrap;html=1;fontColor=#000099;dashed=1;fillColor=none;strokeColor=#FF0000;strokeWidth=2;" vertex="1" parent="OdWC_pLGIVVMLjIX-C78-12">
          <mxGeometry width="580" height="110" as="geometry" />
        </mxCell>
        <mxCell id="OdWC_pLGIVVMLjIX-C78-11" value="VOP network" style="text;html=1;strokeColor=none;fillColor=none;align=center;verticalAlign=middle;whiteSpace=wrap;rounded=0;dashed=1;fontColor=#CC0000;fontStyle=1" vertex="1" parent="OdWC_pLGIVVMLjIX-C78-12">
          <mxGeometry x="431.28205128205127" width="118.97435897435898" height="20" as="geometry" />
        </mxCell>
        <mxCell id="OdWC_pLGIVVMLjIX-C78-19" value="&lt;div style=&quot;font-size: 14px ; line-height: 19px&quot;&gt;&lt;font color=&quot;#000000&quot;&gt;&lt;font face=&quot;Verdana&quot;&gt;reachable inside the vop network using&lt;/font&gt;&lt;br&gt;&lt;font face=&quot;consolas, courier new, monospace&quot;&gt;validationapp.service.osp.connectivity.aero&lt;/font&gt;&lt;/font&gt;&lt;/div&gt;" style="text;html=1;strokeColor=none;fillColor=none;align=center;verticalAlign=middle;whiteSpace=wrap;rounded=0;dashed=1;fontColor=#009900;" vertex="1" parent="OdWC_pLGIVVMLjIX-C78-12">
          <mxGeometry x="234" y="40" width="340" height="20" as="geometry" />
        </mxCell>
        <mxCell id="OdWC_pLGIVVMLjIX-C78-23" value="" style="endArrow=classic;html=1;fontColor=#009900;" edge="1" parent="OdWC_pLGIVVMLjIX-C78-12">
          <mxGeometry width="50" height="50" relative="1" as="geometry">
            <mxPoint x="236" y="55" as="sourcePoint" />
            <mxPoint x="136" y="54.5" as="targetPoint" />
          </mxGeometry>
        </mxCell>
        <mxCell id="OdWC_pLGIVVMLjIX-C78-16" value="" style="endArrow=classic;html=1;fontColor=#009900;" edge="1" parent="1">
          <mxGeometry width="50" height="50" relative="1" as="geometry">
            <mxPoint x="244" y="167.5" as="sourcePoint" />
            <mxPoint x="244" y="307.5" as="targetPoint" />
          </mxGeometry>
        </mxCell>
        <mxCell id="OdWC_pLGIVVMLjIX-C78-18" value="&lt;font face=&quot;Verdana&quot;&gt;&lt;font color=&quot;#000000&quot;&gt;The SDK ensure that the app can be reached using either :&lt;br&gt;&lt;br&gt;https://validationapp.airspacelink.net&lt;br&gt;or&lt;/font&gt;&lt;span style=&quot;color: rgb(0 , 0 , 0)&quot;&gt;&lt;br&gt;https://otherapp.airspacelink.net/osp/service/vallidationapp&lt;br&gt;&lt;/span&gt;&lt;/font&gt;&lt;font color=&quot;#000000&quot;&gt;&lt;font face=&quot;Verdana&quot;&gt;&lt;br&gt;Note: the portal app can provide additional&amp;nbsp;access to an application&lt;br&gt;example : https://portalapp.airspacelink.net/app/validationapp&lt;/font&gt;&lt;br&gt;&lt;/font&gt;" style="text;html=1;strokeColor=none;fillColor=none;align=left;verticalAlign=top;whiteSpace=wrap;rounded=0;dashed=1;fontColor=#009900;" vertex="1" parent="1">
          <mxGeometry x="200" y="20" width="470" height="85" as="geometry" />
        </mxCell>
        <mxCell id="OdWC_pLGIVVMLjIX-C78-24" value="" style="endArrow=classic;html=1;fontColor=#009900;" edge="1" parent="1">
          <mxGeometry width="50" height="50" relative="1" as="geometry">
            <mxPoint x="406" y="470.5" as="sourcePoint" />
            <mxPoint x="326" y="470.0999999999999" as="targetPoint" />
          </mxGeometry>
        </mxCell>
        <mxCell id="OdWC_pLGIVVMLjIX-C78-26" value="&lt;div style=&quot;font-size: 14px ; line-height: 19px&quot;&gt;&lt;font color=&quot;#000000&quot;&gt;&lt;font face=&quot;Verdana&quot;&gt;reachable only from the internal network using&lt;/font&gt;&lt;font face=&quot;consolas, courier new, monospace&quot;&gt; validationapp_nodejs_1:3000&lt;/font&gt;&lt;/font&gt;&lt;/div&gt;" style="text;html=1;strokeColor=none;fillColor=none;align=center;verticalAlign=middle;whiteSpace=wrap;rounded=0;dashed=1;fontColor=#009900;" vertex="1" parent="1">
          <mxGeometry x="409" y="461" width="360" height="20" as="geometry" />
        </mxCell>
      </root>
    </mxGraphModel>
  </diagram>
</mxfile>
